<svg width="291" height="263" viewBox="0 0 291 263" fill="none" xmlns="http://www.w3.org/2000/svg">
<path d="M285.132 160.069C285.132 127.808 258.931 101.076 224.711 96.3052C215.399 63.0336 182.055 38.4087 142.349 38.4087C102.158 38.4087 68.4858 63.6372 59.6563 97.5262C28.7415 104.613 5.86792 129.927 5.86792 160.069C5.86792 195.703 37.8325 224.592 77.2595 224.592H214.626V224.581C253.645 224.152 285.132 195.434 285.132 160.069Z" fill="#1E4040"/>
<path d="M145.32 145.843C142.83 145.843 140.521 144.4 139.728 142.141C131.059 117.444 105.955 100.851 77.2599 100.851C74.0191 100.851 71.3916 98.4765 71.3916 95.5471C71.3916 92.6181 74.0186 90.2434 77.2599 90.2434C93.9964 90.2434 109.924 95.0016 123.319 104.004C136.448 112.828 145.991 124.906 150.915 138.934C151.895 141.726 150.185 144.708 147.096 145.593C146.506 145.762 145.908 145.843 145.32 145.843Z" fill="white"/>
<path d="M148.651 165.373C145.41 165.373 142.783 162.998 142.783 160.069C142.783 159.346 142.768 158.612 142.739 157.886C142.622 154.959 145.153 152.5 148.391 152.395C151.639 152.289 154.351 154.576 154.468 157.503C154.502 158.355 154.519 159.219 154.519 160.069C154.519 162.998 151.892 165.373 148.651 165.373Z" fill="white"/>
</svg>
