<svg width="291" height="231" viewBox="0 0 291 231" fill="none" xmlns="http://www.w3.org/2000/svg">
<path d="M40.8077 29.252L37.6562 26.1005C34.5047 22.949 29.4139 23.0298 26.3432 26.1005L26.2624 26.1813C23.1109 29.3328 23.1109 34.4237 26.2624 37.4944L29.4139 40.6458C32.5653 43.7973 37.5754 43.7973 40.7269 40.6458L40.8077 40.565C43.9592 37.4944 43.9592 32.3227 40.8077 29.252Z" fill="#1E4040"/>
<path d="M16.2423 80.6455H7.99992C3.55552 80.6455 0 84.201 0 88.6454V88.7262C0 93.1706 3.55552 96.7261 7.99992 96.7261H16.1615C20.6867 96.8069 24.2422 93.2514 24.2422 88.807V88.7262C24.2422 84.201 20.6867 80.6455 16.2423 80.6455Z" fill="#1E4040"/>
<path d="M88.9688 0.242188H88.888C84.3628 0.242188 80.8073 3.79771 80.8073 8.24211V15.9996C80.8073 20.444 84.3628 23.9995 88.8072 23.9995H88.888C93.4132 24.0803 96.9688 20.5248 96.9688 16.0804V8.24211C96.9688 3.79771 93.4132 0.242188 88.9688 0.242188Z" fill="#1E4040"/>
<path d="M151.514 26.1813C148.362 23.0298 143.271 23.0298 140.12 26.1005L136.968 29.252C133.817 32.4035 133.817 37.4944 136.968 40.565L137.049 40.6458C140.201 43.7973 145.292 43.7973 148.362 40.6458L151.514 37.4944C154.665 34.3429 154.665 29.3328 151.514 26.1813Z" fill="#1E4040"/>
<path d="M88.888 40.2418C62.1408 40.2418 40.4036 61.979 40.4036 88.7262C40.4036 106.064 49.5368 121.296 63.2476 129.868C69.8082 110.863 87.8548 97.2109 109.09 97.2109C109.926 97.2109 110.756 97.2321 111.582 97.2739C115.082 84.8508 122.093 73.8988 131.475 65.5563C123.246 50.4831 107.247 40.2418 88.888 40.2418Z" fill="#1E4040"/>
<path d="M26.2624 151.271C29.4139 154.423 34.5047 154.423 37.6562 151.271L40.8077 148.12C43.9592 144.968 43.8784 139.877 40.8077 136.807L40.7269 136.726C37.5754 133.574 32.4845 133.574 29.333 136.726L26.1816 139.877C23.1109 143.11 23.1109 148.12 26.2624 151.271Z" fill="#1E4040"/>
<path d="M84.8477 230.543H242.422C269.199 230.543 290.906 208.836 290.906 182.059C290.906 159.318 275.25 140.233 254.128 134.997C254.402 132.54 254.543 130.043 254.543 127.514C254.543 90.695 224.696 60.8477 187.877 60.8477C157.339 60.8477 131.596 81.3812 123.703 109.395C122.877 109.353 122.047 109.332 121.211 109.332C94.4338 109.332 72.7266 131.039 72.7266 157.816C72.7266 158.505 72.7409 159.189 72.7693 159.87C58.6236 164.85 48.4844 178.331 48.4844 194.18C48.4844 214.263 64.7648 230.543 84.8477 230.543Z" fill="#1E4040"/>
</svg>
