<svg width="364" height="351" viewBox="0 0 364 351" fill="none" xmlns="http://www.w3.org/2000/svg">
<path d="M66.125 274.854C66.125 285.145 74.4687 293.489 84.7604 293.489C95.0522 293.489 103.396 285.145 103.396 274.854C103.396 264.562 84.7604 236.772 84.7604 236.772C84.7604 236.772 66.125 264.562 66.125 274.854ZM146.344 331.571C146.344 341.862 154.682 350.211 164.98 350.211C175.271 350.211 183.615 341.862 183.615 331.571C183.615 321.279 164.98 293.489 164.98 293.489C164.98 293.489 146.344 321.279 146.344 331.571ZM222.518 312.13C222.518 322.421 230.867 330.765 241.159 330.765C251.445 330.765 259.794 322.421 259.794 312.13C259.794 301.838 241.159 274.043 241.159 274.043C241.159 274.043 222.518 301.838 222.518 312.13ZM261.626 0C243.228 0 225.304 4.93381 209.517 14.3033C196.852 5.04338 181.49 0 165.741 0C133.261 0 105.255 20.5834 95.3109 50.8559C88.4687 48.8196 81.4053 47.7878 74.2313 47.7878C33.2969 47.7878 0 81.0857 0 122.02C0 162.95 33.303 196.252 74.2313 196.252C85.5163 196.252 96.5912 193.663 106.7 188.725C117.467 217.386 144.925 236.772 176.098 236.772C201.73 236.772 225.343 223.611 238.902 202.123C246.478 203.867 254.099 204.755 261.631 204.755C318.077 204.755 364 158.832 364 102.379C364 45.9271 318.073 0 261.626 0Z" fill="#1E4040"/>
</svg>
