<svg width="307" height="307" viewBox="0 0 307 307" fill="none" xmlns="http://www.w3.org/2000/svg">
<path d="M153.406 59.1709C100.872 59.1709 58.1064 101.937 58.1064 154.471C58.1064 207.004 100.872 249.77 153.406 249.77C205.94 249.77 248.706 207.004 248.706 154.471C248.706 101.874 205.94 59.1709 153.406 59.1709ZM153.406 154.408C114.961 154.408 153.406 179.945 153.406 141.5C153.406 103.055 114.961 154.408 153.406 154.408C191.852 154.408 153.406 103.055 153.406 141.5C153.406 179.945 191.852 154.408 153.406 154.408Z" fill="#1E4040"/>
<path d="M153.406 39.9482C160.482 39.9482 166.18 34.2503 166.18 27.1748V12.7734C166.18 5.69795 160.482 0 153.406 0C146.331 0 140.633 5.69795 140.633 12.7734V27.1748C140.633 34.2503 146.331 39.9482 153.406 39.9482Z" fill="#1E4040"/>
<path d="M153.406 266.864C146.331 266.864 140.633 272.562 140.633 279.638V293.976C140.633 301.052 146.331 306.75 153.406 306.75C160.482 306.75 166.18 301.052 166.18 293.976V279.638C166.18 272.625 160.482 266.864 153.406 266.864Z" fill="#1E4040"/>
<path d="M294.039 140.633H279.638C272.562 140.633 266.864 146.331 266.864 153.406C266.864 160.482 272.562 166.18 279.638 166.18H294.039C301.115 166.18 306.812 160.482 306.812 153.406C306.812 146.331 301.115 140.633 294.039 140.633Z" fill="#1E4040"/>
<path d="M27.1748 139.633H12.7734C5.69795 139.633 0 145.331 0 152.406C0 159.482 5.69795 165.18 12.7734 165.18H27.1122C34.1877 165.18 39.8856 159.482 39.8856 152.406C39.9482 145.331 34.1877 139.633 27.1748 139.633Z" fill="#1E4040"/>
<path d="M243.822 44.9573L233.616 55.1009C228.607 60.1101 228.607 68.1874 233.616 73.1966C238.625 78.2058 246.702 78.2058 251.711 73.1966L261.855 63.053C266.864 58.0438 266.864 49.9665 261.855 44.9573C256.846 39.9481 248.769 39.9481 243.822 44.9573Z" fill="#1E4040"/>
<path d="M55.1009 233.616L44.9573 243.759C39.9481 248.769 39.9481 256.846 44.9573 261.855C49.9665 266.864 58.0438 266.864 63.053 261.855L73.1966 251.711C78.2058 246.702 78.2058 238.625 73.1966 233.616C68.1874 228.607 60.1101 228.669 55.1009 233.616Z" fill="#1E4040"/>
<path d="M251.711 233.616C246.702 228.607 238.625 228.607 233.616 233.616C228.607 238.625 228.607 246.702 233.616 251.711L243.759 261.855C248.769 266.864 256.846 266.864 261.855 261.855C266.864 256.846 266.864 248.769 261.855 243.759L251.711 233.616Z" fill="#1E4040"/>
<path d="M55.1009 73.1966C60.1101 78.2058 68.1874 78.2058 73.1966 73.1966C78.2058 68.1874 78.2058 60.1101 73.1966 55.1009L63.053 44.9573C58.0438 39.9481 49.9665 39.9481 44.9573 44.9573C39.9481 49.9665 39.9481 58.0438 44.9573 63.053L55.1009 73.1966Z" fill="#1E4040"/>
</svg>
